HIERARCHY
ROOT Root
{
	OFFSET 0.00000 0.00000 0.00000
	CHANNELS 6 Xposition Yposition Zposition Zrotation Xrotation Yrotation
	JOINT Hip
	{
		OFFSET 0 0 0	
		CHANNELS 3 Zrotation Xrotation Yrotation
		JOINT Tummy
		{
			OFFSET 0 0.04 0	
			CHANNELS 3 Zrotation Xrotation Yrotation
			JOINT ChestBottom
			{
				OFFSET 0 0.194 0	
				CHANNELS 3 Zrotation Xrotation Yrotation
				JOINT ChestTop
				{
					OFFSET 0 0.166 0	
					CHANNELS 3 Zrotation Xrotation Yrotation
					JOINT LeftCollar
					{
						OFFSET 0 0.1 0	
						CHANNELS 3 Zrotation Xrotation Yrotation
						JOINT LeftUpperArm
						{
							OFFSET 0.156 -0.02 0.03	
							CHANNELS 3 Zrotation Xrotation Yrotation
							JOINT LeftForeArm
							{
								OFFSET 0.035 -0.27 -0.01	
								CHANNELS 3 Zrotation Xrotation Yrotation
								JOINT LeftHand
								{
									OFFSET 0.01 -0.27 0.01	
									CHANNELS 3 Zrotation Xrotation Yrotation
									End Site
									{
										OFFSET 0 -0.15 0
									}
								}
							}
						}
					}
					JOINT RightCollar
					{
						OFFSET 0 0.1 0	
						CHANNELS 3 Zrotation Xrotation Yrotation
						JOINT RightUpperArm
						{
							OFFSET -0.156 -0.02 0.03	
							CHANNELS 3 Zrotation Xrotation Yrotation
							JOINT RightForeArm
							{
								OFFSET -0.035 -0.27 -0.01	
								CHANNELS 3 Zrotation Xrotation Yrotation
								JOINT RightHand
								{
									OFFSET -0.01 -0.27 0.01	
									CHANNELS 3 Zrotation Xrotation Yrotation
									End Site
									{
										OFFSET 0 -0.15 0
									}
								}
							}
						}
					}
					JOINT Neck
					{
						OFFSET 0 0.1 0	
						CHANNELS 3 Zrotation Xrotation Yrotation
						JOINT Head
						{
							OFFSET 0 0.127 0.03	
							CHANNELS 3 Zrotation Xrotation Yrotation
							End Site
							{
								OFFSET 0 0.127 0.03
							}
						}
					}
				}
			}
		}
	}
	JOINT LeftHip
	{
		OFFSET 0 0 0	
		CHANNELS 3 Zrotation Xrotation Yrotation
		JOINT LeftThigh
		{
			OFFSET 0.088 -0.06 0	
			CHANNELS 3 Zrotation Xrotation Yrotation
			JOINT LeftLowerLeg
			{
				OFFSET 0 -0.39 0.02	
				CHANNELS 3 Zrotation Xrotation Yrotation
				JOINT LeftFootTop
				{
					OFFSET 0 -0.43 -0.02	
					CHANNELS 3 Zrotation Xrotation Yrotation
					JOINT LeftFootFront
					{
						OFFSET 0 -0.07 0.085	
						CHANNELS 3 Zrotation Xrotation Yrotation
						End Site
						{
							OFFSET 0 -0.005 0.09
						}
					}
				}
				JOINT LeftHeel
				{
					OFFSET 0 -0.43 -0.02	
					CHANNELS 3 Zrotation Xrotation Yrotation
					End Site
					{
						OFFSET 0 -0.075 -0.05
					}
				}
			}
		}
	}
	JOINT RightHip
	{
		OFFSET 0 0 0	
		CHANNELS 3 Zrotation Xrotation Yrotation
		JOINT RightThigh
		{
			OFFSET -0.088 -0.06 0	
			CHANNELS 3 Zrotation Xrotation Yrotation
			JOINT RightLowerLeg
			{
				OFFSET 0 -0.39 0.02	
				CHANNELS 3 Zrotation Xrotation Yrotation
				JOINT RightFootTop
				{
					OFFSET 0 -0.43 -0.02	
					CHANNELS 3 Zrotation Xrotation Yrotation
					JOINT RightFootFront
					{
						OFFSET 0 -0.07 0.085	
						CHANNELS 3 Zrotation Xrotation Yrotation
						End Site
						{
							OFFSET 0 -0.005 0.09
						}
					}
				}
				JOINT RightHeel
				{
					OFFSET 0 -0.43 -0.02	
					CHANNELS 3 Zrotation Xrotation Yrotation
					End Site
					{
						OFFSET 0 -0.075 -0.05
					}
				}
			}
		}
	}
}
MOTION
Frames: 27
Frame Time: 0.05
0 0.955 0 -0 0 -0 -0 0 -0 -0 0 -0 -9.1975 6.5883 59.497 -0 0 -0 -0 0 -0 6.8066 -12.979 -10.303 -62.295 -34.299 22.032 -0 0 -0 -0 0 -0 -17.023 -15.215 23.638 71.039 -31.68 6.796 -0 0 -0 -8.6977 -11.573 -0.38432 -8.6977 -11.573 -0.38432 -0 0 -0 -0 0 -0 -0 0 -0 -0 0 -0 -0 0 -0 -0 0 -0 -0 0 -0 -0 0 -0 -0 0 -0 -0 0 -0 -0 0 -0 -0 0 -0 
0 0.955 0 -0 0 -0 -0 0 -0 -0 0 -0 -9.3238 6.7681 59.43 -0 0 -0 -0 0 -0 6.756 -13.09 -10.559 -62.069 -34.72 21.517 -0 0 -0 -0 0 -0 -19.71 -14.444 23.056 75.76 -34.937 6.8364 -0 0 -0 -8.7059 -12.517 -0.39341 -8.7059 -12.517 -0.39341 -0 0 -0 -0 0 -0 -0 0 -0 -0 0 -0 -0 0 -0 -0 0 -0 -0 0 -0 -0 0 -0 -0 0 -0 -0 0 -0 -0 0 -0 -0 0 -0 
0 0.955 0 -0 0 -0 -0 0 -0 -0 0 -0 -9.7583 6.5454 59.405 -0 0 -0 -0 0 -0 7.0013 -13.285 -10.528 -62.189 -34.936 20.869 -0 0 -0 -0 0 -0 -22.475 -13.086 20.382 81.305 -35.096 8.7474 -0 0 -0 -8.0293 -12.673 -0.3478 -8.0293 -12.673 -0.3478 -0 0 -0 -0 0 -0 -0 0 -0 -0 0 -0 -0 0 -0 -0 0 -0 -0 0 -0 -0 0 -0 -0 0 -0 -0 0 -0 -0 0 -0 -0 0 -0 
0 0.955 0 -0 0 -0 -0 0 -0 -0 0 -0 -10.316 6.2189 59.177 -0 0 -0 -0 0 -0 7.4089 -13.545 -9.9891 -62.394 -34.87 20.274 -0 0 -0 -0 0 -0 -24.497 -11.852 16.294 86.792 -33.321 7.9401 -0 0 -0 -7.0282 -12.063 -0.18064 -7.0282 -12.063 -0.18065 -0 0 -0 -0 0 -0 -0 0 -0 -0 0 -0 -0 0 -0 -0 0 -0 -0 0 -0 -0 0 -0 -0 0 -0 -0 0 -0 -0 0 -0 -0 0 -0 
0 0.955 0 -0 0 -0 -0 0 -0 -0 0 -0 -11.134 6.3575 58.689 -0 0 -0 -0 0 -0 7.6436 -14.341 -9.0937 -62.538 -34.613 20.491 -0 0 -0 -0 0 -0 -25.81 -11.871 10.84 90.985 -31.033 8.2137 -0 0 -0 -6.1087 -10.848 0.20541 -6.1087 -10.848 0.20541 -0 0 -0 -0 0 -0 -0 0 -0 -0 0 -0 -0 0 -0 -0 0 -0 -0 0 -0 -0 0 -0 -0 0 -0 -0 0 -0 -0 0 -0 -0 0 -0 
0 0.955 0 -0 0 -0 -0 0 -0 -0 0 -0 -11.383 6.364 58.027 -0 0 -0 -0 0 -0 7.7121 -14.572 -8.3682 -62.241 -34.369 20.98 -0 0 -0 -0 0 -0 -26.419 -12.36 4.9021 93.522 -28.59 10.293 -0 0 -0 -5.5654 -9.4659 1.0279 -5.5654 -9.4659 1.028 -0 0 -0 -0 0 -0 -0 0 -0 -0 0 -0 -0 0 -0 -0 0 -0 -0 0 -0 -0 0 -0 -0 0 -0 -0 0 -0 -0 0 -0 -0 0 -0 
0 0.955 0 -0 0 -0 -0 0 -0 -0 0 -0 -11.472 6.4887 57.632 -0 0 -0 -0 0 -0 7.7791 -14.695 -8.356 -61.699 -34.439 21.491 -0 0 -0 -0 0 -0 -26.93 -13.149 -0.29558 95.993 -27.642 13.989 -0 0 -0 -5.5991 -9.1524 1.7236 -5.5991 -9.1524 1.7236 -0 0 -0 -0 0 -0 -0 0 -0 -0 0 -0 -0 0 -0 -0 0 -0 -0 0 -0 -0 0 -0 -0 0 -0 -0 0 -0 -0 0 -0 -0 0 -0 
0 0.955 0 -0 0 -0 -0 0 -0 -0 0 -0 -11.613 6.463 57.598 -0 0 -0 -0 0 -0 7.9869 -14.746 -8.9656 -61.126 -34.876 21.773 -0 0 -0 -0 0 -0 -26.693 -14.503 -4.779 98.424 -30.314 18.366 -0 0 -0 -5.8413 -9.5035 2.0714 -5.8413 -9.5035 2.0714 -0 0 -0 -0 0 -0 -0 0 -0 -0 0 -0 -0 0 -0 -0 0 -0 -0 0 -0 -0 0 -0 -0 0 -0 -0 0 -0 -0 0 -0 -0 0 -0 
0 0.955 0 -0 0 -0 -0 0 -0 -0 0 -0 -11.632 6.3702 57.723 -0 0 -0 -0 0 -0 8.1161 -14.664 -9.3605 -60.993 -35.252 21.558 -0 0 -0 -0 0 -0 -25.786 -16.248 -8.7263 101.09 -36.314 22.433 -0 0 -0 -6.0741 -9.7903 2.2612 -6.0741 -9.7903 2.2612 -0 0 -0 -0 0 -0 -0 0 -0 -0 0 -0 -0 0 -0 -0 0 -0 -0 0 -0 -0 0 -0 -0 0 -0 -0 0 -0 -0 0 -0 -0 0 -0 
0 0.955 0 -0 0 -0 -0 0 -0 -0 0 -0 -11.579 6.2184 58.018 -0 0 -0 -0 0 -0 8.0216 -14.67 -9.2522 -61.169 -35.02 21.204 -0 0 -0 -0 0 -0 -24.232 -17.916 -11.97 103.11 -43.698 26.502 -0 0 -0 -6.1481 -9.6474 2.4088 -6.1481 -9.6474 2.4088 -0 0 -0 -0 0 -0 -0 0 -0 -0 0 -0 -0 0 -0 -0 0 -0 -0 0 -0 -0 0 -0 -0 0 -0 -0 0 -0 -0 0 -0 -0 0 -0 
0 0.955 0 -0 0 -0 -0 0 -0 -0 0 -0 -11.235 6.0905 58.364 -0 0 -0 -0 0 -0 7.6299 -14.656 -8.8678 -61.526 -34.284 20.914 -0 0 -0 -0 0 -0 -22.377 -18.609 -12.783 104.18 -51.352 30.962 -0 0 -0 -6.1526 -8.8738 2.5606 -6.1526 -8.8738 2.5606 -0 0 -0 -0 0 -0 -0 0 -0 -0 0 -0 -0 0 -0 -0 0 -0 -0 0 -0 -0 0 -0 -0 0 -0 -0 0 -0 -0 0 -0 -0 0 -0 
0 0.955 0 -0 0 -0 -0 0 -0 -0 0 -0 -10.943 5.9646 58.76 -0 0 -0 -0 0 -0 7.34 -14.687 -8.7488 -61.671 -33.675 20.609 -0 0 -0 -0 0 -0 -20.795 -18.384 -11.453 102.88 -59.074 34.353 -0 0 -0 -6.0197 -7.7051 2.6151 -6.0197 -7.7051 2.6151 -0 0 -0 -0 0 -0 -0 0 -0 -0 0 -0 -0 0 -0 -0 0 -0 -0 0 -0 -0 0 -0 -0 0 -0 -0 0 -0 -0 0 -0 -0 0 -0 
0 0.955 0 -0 0 -0 -0 0 -0 -0 0 -0 -10.706 6.0098 59.091 -0 0 -0 -0 0 -0 7.183 -14.768 -9.1135 -61.452 -33.505 20.568 -0 0 -0 -0 0 -0 -19.751 -17.393 -8.7296 98.527 -64.674 34.732 -0 0 -0 -5.961 -7.0478 2.5675 -5.961 -7.0478 2.5675 -0 0 -0 -0 0 -0 -0 0 -0 -0 0 -0 -0 0 -0 -0 0 -0 -0 0 -0 -0 0 -0 -0 0 -0 -0 0 -0 -0 0 -0 -0 0 -0 
0 0.955 0 -0 0 -0 -0 0 -0 -0 0 -0 -10.545 6.1257 59.31 -0 0 -0 -0 0 -0 7.1113 -14.771 -9.8007 -61.085 -33.738 20.922 -0 0 -0 -0 0 -0 -18.957 -16.537 -7.1624 93.186 -65.497 28.555 -0 0 -0 -5.9924 -7.2307 2.4441 -5.9924 -7.2307 2.4441 -0 0 -0 -0 0 -0 -0 0 -0 -0 0 -0 -0 0 -0 -0 0 -0 -0 0 -0 -0 0 -0 -0 0 -0 -0 0 -0 -0 0 -0 -0 0 -0 
0 0.955 0 -0 0 -0 -0 0 -0 -0 0 -0 -10.597 6.1726 59.453 -0 0 -0 -0 0 -0 7.2551 -14.725 -10.287 -61.098 -34.089 21.092 -0 0 -0 -0 0 -0 -18.061 -15.85 -6.4152 92.45 -62.467 21.474 -0 0 -0 -6.0228 -7.8285 2.2743 -6.0228 -7.8285 2.2743 -0 0 -0 -0 0 -0 -0 0 -0 -0 0 -0 -0 0 -0 -0 0 -0 -0 0 -0 -0 0 -0 -0 0 -0 -0 0 -0 -0 0 -0 -0 0 -0 
0 0.955 0 -0 0 -0 -0 0 -0 -0 0 -0 -10.75 6.2492 59.453 -0 0 -0 -0 0 -0 7.3528 -14.654 -10.197 -61.451 -34.207 20.898 -0 0 -0 -0 0 -0 -17.439 -15.304 -5.884 93.088 -60.399 18.254 -0 0 -0 -6.1033 -8.5438 2.0402 -6.1033 -8.5438 2.0402 -0 0 -0 -0 0 -0 -0 0 -0 -0 0 -0 -0 0 -0 -0 0 -0 -0 0 -0 -0 0 -0 -0 0 -0 -0 0 -0 -0 0 -0 -0 0 -0 
0 0.955 0 -0 0 -0 -0 0 -0 -0 0 -0 -10.842 6.431 59.371 -0 0 -0 -0 0 -0 7.3017 -14.615 -9.9038 -61.639 -34.145 20.769 -0 0 -0 -0 0 -0 -17.194 -14.642 -4.9677 94.527 -59.331 17.146 -0 0 -0 -6.3996 -9.191 1.7207 -6.3996 -9.191 1.7207 -0 0 -0 -0 0 -0 -0 0 -0 -0 0 -0 -0 0 -0 -0 0 -0 -0 0 -0 -0 0 -0 -0 0 -0 -0 0 -0 -0 0 -0 -0 0 -0 
0 0.955 0 -0 0 -0 -0 0 -0 -0 0 -0 -10.867 6.4267 59.303 -0 0 -0 -0 0 -0 7.3753 -14.527 -9.887 -61.583 -34.099 21.08 -0 0 -0 -0 0 -0 -16.881 -14 -4.2337 95.011 -58.305 15.519 -0 0 -0 -6.7236 -9.7652 1.2443 -6.7236 -9.7652 1.2443 -0 0 -0 -0 0 -0 -0 0 -0 -0 0 -0 -0 0 -0 -0 0 -0 -0 0 -0 -0 0 -0 -0 0 -0 -0 0 -0 -0 0 -0 -0 0 -0 
0 0.955 0 -0 0 -0 -0 0 -0 -0 0 -0 -10.859 6.3872 59.271 -0 0 -0 -0 0 -0 7.4924 -14.46 -10.142 -61.375 -34.216 21.433 -0 0 -0 -0 0 -0 -16.612 -13.836 -4.0228 95.649 -57.531 13.749 -0 0 -0 -6.974 -10.232 0.77858 -6.974 -10.232 0.77859 -0 0 -0 -0 0 -0 -0 0 -0 -0 0 -0 -0 0 -0 -0 0 -0 -0 0 -0 -0 0 -0 -0 0 -0 -0 0 -0 -0 0 -0 -0 0 -0 
0 0.955 0 -0 0 -0 -0 0 -0 -0 0 -0 -10.884 6.4947 59.308 -0 0 -0 -0 0 -0 7.4785 -14.484 -10.405 -61.238 -34.443 21.393 -0 0 -0 -0 0 -0 -16.481 -13.983 -3.6142 98.167 -56.575 12.738 -0 0 -0 -7.098 -10.512 0.4545 -7.0981 -10.512 0.45449 -0 0 -0 -0 0 -0 -0 0 -0 -0 0 -0 -0 0 -0 -0 0 -0 -0 0 -0 -0 0 -0 -0 0 -0 -0 0 -0 -0 0 -0 -0 0 -0 
0 0.955 0 -0 0 -0 -0 0 -0 -0 0 -0 -10.855 6.618 59.355 -0 0 -0 -0 0 -0 7.3818 -14.466 -10.417 -61.332 -34.546 21.101 -0 0 -0 -0 0 -0 -16.532 -14.463 -3.2826 100.29 -56.692 13.627 -0 0 -0 -7.0808 -10.54 0.31016 -7.0808 -10.54 0.31018 -0 0 -0 -0 0 -0 -0 0 -0 -0 0 -0 -0 0 -0 -0 0 -0 -0 0 -0 -0 0 -0 -0 0 -0 -0 0 -0 -0 0 -0 -0 0 -0 
0 0.955 0 -0 0 -0 -0 0 -0 -0 0 -0 -10.822 6.7968 59.475 -0 0 -0 -0 0 -0 7.2128 -14.52 -10.297 -61.56 -34.47 20.765 -0 0 -0 -0 0 -0 -16.589 -15.246 -2.8407 102.91 -57.414 14.545 -0 0 -0 -7.0861 -10.422 0.21414 -7.0861 -10.422 0.21414 -0 0 -0 -0 0 -0 -0 0 -0 -0 0 -0 -0 0 -0 -0 0 -0 -0 0 -0 -0 0 -0 -0 0 -0 -0 0 -0 -0 0 -0 -0 0 -0 
0 0.955 0 -0 0 -0 -0 0 -0 -0 0 -0 -10.675 6.8463 59.642 -0 0 -0 -0 0 -0 7.0824 -14.487 -10.277 -61.703 -34.299 20.652 -0 0 -0 -0 0 -0 -16.566 -15.912 -2.1706 107.88 -57.798 17.962 -0 0 -0 -7.1562 -10.331 0.10104 -7.1562 -10.331 0.10104 -0 0 -0 -0 0 -0 -0 0 -0 -0 0 -0 -0 0 -0 -0 0 -0 -0 0 -0 -0 0 -0 -0 0 -0 -0 0 -0 -0 0 -0 -0 0 -0 
0 0.955 0 -0 0 -0 -0 0 -0 -0 0 -0 -10.572 6.7419 59.713 -0 0 -0 -0 0 -0 7.1311 -14.447 -10.356 -61.655 -34.188 20.855 -0 0 -0 -0 0 -0 -16.409 -17.239 -2.0351 112.43 -57.208 22.57 -0 0 -0 -7.1185 -10.468 -0.0025103 -7.1185 -10.468 -0.002524 -0 0 -0 -0 0 -0 -0 0 -0 -0 0 -0 -0 0 -0 -0 0 -0 -0 0 -0 -0 0 -0 -0 0 -0 -0 0 -0 -0 0 -0 -0 0 -0 
0 0.955 0 -0 0 -0 -0 0 -0 -0 0 -0 -10.587 6.6646 59.614 -0 0 -0 -0 0 -0 7.2302 -14.419 -10.429 -61.517 -34.269 21.064 -0 0 -0 -0 0 -0 -16.253 -19.776 -2.009 115.91 -56.421 27.115 -0 0 -0 -7.0109 -10.828 -0.036755 -7.0109 -10.828 -0.036755 -0 0 -0 -0 0 -0 -0 0 -0 -0 0 -0 -0 0 -0 -0 0 -0 -0 0 -0 -0 0 -0 -0 0 -0 -0 0 -0 -0 0 -0 -0 0 -0 
0 0.955 0 -0 0 -0 -0 0 -0 -0 0 -0 -10.659 6.6553 59.434 -0 0 -0 -0 0 -0 7.321 -14.395 -10.479 -61.379 -34.539 21.037 -0 0 -0 -0 0 -0 -16.406 -23.326 -1.9108 117.87 -56.089 29.673 -0 0 -0 -6.8258 -11.241 -0.048945 -6.8258 -11.241 -0.048947 -0 0 -0 -0 0 -0 -0 0 -0 -0 0 -0 -0 0 -0 -0 0 -0 -0 0 -0 -0 0 -0 -0 0 -0 -0 0 -0 -0 0 -0 -0 0 -0 
0 0.955 0 -0 0 -0 -0 0 -0 -0 0 -0 -10.715 6.6281 59.339 -0 0 -0 -0 0 -0 7.3591 -14.372 -10.549 -61.298 -34.787 20.938 -0 0 -0 -0 0 -0 -16.794 -27.357 -1.7306 118.91 -56.756 32.295 -0 0 -0 -6.6033 -11.436 -0.15452 -6.6033 -11.436 -0.15452 -0 0 -0 -0 0 -0 -0 0 -0 -0 0 -0 -0 0 -0 -0 0 -0 -0 0 -0 -0 0 -0 -0 0 -0 -0 0 -0 -0 0 -0 -0 0 -0 
